<?xml version="1.0" encoding="utf-8"?>
<!-- Generator: Adobe Illustrator 16.0.0, SVG Export Plug-In . SVG Version: 6.00 Build 0)  -->
<!DOCTYPE svg PUBLIC "-//W3C//DTD SVG 1.1//EN" "http://www.w3.org/Graphics/SVG/1.1/DTD/svg11.dtd">
<svg version="1.1" id="圖層_1" xmlns="http://www.w3.org/2000/svg" xmlns:xlink="http://www.w3.org/1999/xlink" x="0px" y="0px"
	 width="148.965px" height="205.297px" viewBox="0 0 148.965 205.297" enable-background="new 0 0 148.965 205.297"
	 xml:space="preserve">
<polygon fill="#8A8A8A" points="51.259,34.223 23.337,148.938 10.754,206.297 140.558,206.297 138.365,120.26 124.012,36.653 
	118.72,54.638 55.96,56.097 "/>
<polygon fill="#F5F5F5" points="54.663,81.858 67.302,83.479 75.655,80.563 "/>
<polygon fill="#F5F5F5" points="94.522,80.563 107.484,83.479 118.503,80.563 "/>
<polygon fill="#282F44" points="62.535,81.373 62.831,82.906 67.302,83.479 70.318,82.426 69.933,80.916 "/>
<polygon fill="#282F44" points="102.785,80.563 103.16,82.506 107.707,83.479 110.725,82.771 110.725,80.563 "/>
<polygon fill="#282F44" points="85.125,91.095 82.518,88.664 85.125,88.664 87.434,88.664 "/>
<polyline fill="none" stroke="#282F44" stroke-miterlimit="10" points="90.364,104.907 84.567,102.32 79.588,107.134 "/>
<line fill="none" stroke="#282F44" stroke-miterlimit="10" x1="84.976" y1="91.823" x2="84.976" y2="99.966"/>
<polyline fill="none" stroke="#282F44" stroke-width="4" stroke-miterlimit="10" points="74.034,53.804 69.984,61.689 
	75.655,63.104 74.197,71.899 "/>
<polyline fill="none" stroke="#282F44" stroke-width="4" stroke-miterlimit="10" points="83.732,51.869 79.683,59.714 
	85.354,61.119 83.896,69.869 "/>
<polyline fill="none" stroke="#282F44" stroke-width="4" stroke-miterlimit="10" points="95.736,53.232 91.687,61.367 
	97.357,62.825 95.899,71.899 "/>
</svg>
