<?xml version="1.0" encoding="utf-8"?>
<!-- Generator: Adobe Illustrator 16.0.0, SVG Export Plug-In . SVG Version: 6.00 Build 0)  -->
<!DOCTYPE svg PUBLIC "-//W3C//DTD SVG 1.1//EN" "http://www.w3.org/Graphics/SVG/1.1/DTD/svg11.dtd">
<svg version="1.1" id="圖層_1" xmlns="http://www.w3.org/2000/svg" xmlns:xlink="http://www.w3.org/1999/xlink" x="0px" y="0px"
	 width="352px" height="209px" viewBox="0 0 352 209" enable-background="new 0 0 352 209" xml:space="preserve">
<polygon fill="#ECECEC" points="0,209 85.667,74.673 101.667,105.354 197.667,99.856 229,69.313 352,209 "/>
<polygon fill="#282F44" points="92.569,129.032 114.569,122.132 137.235,129.032 114.902,131.544 "/>
<polygon fill="#282F44" points="172.569,129.25 196.569,134.925 213.235,129.25 192.902,125.987 "/>
<polygon fill="#E6AF2E" points="108.235,123.893 112.576,131.315 118,131.315 120.003,123.339 114.569,122.132 "/>
<polygon fill="#E6AF2E" points="187.651,125.95 192.334,133.924 196.569,134.925 200.551,132.758 198.153,125.95 192.902,125.335 
	"/>
<polygon fill="#282F44" points="154.402,139.743 147.902,132.758 154.402,135.123 161.902,132.758 "/>
<polyline fill="none" stroke="#282F44" stroke-miterlimit="10" points="147.902,159.29 154.902,153.242 161.902,159.29 "/>
<line fill="none" stroke="#282F44" stroke-miterlimit="10" x1="154.902" y1="150.258" x2="154.402" y2="139.743"/>
<polygon fill="#FFFFFF" points="85.667,80.687 88.965,116.173 67,124.699 "/>
<polygon fill="#FFFFFF" points="229,74.896 217.853,107.434 250.333,107.434 "/>
</svg>
