<?xml version="1.0" encoding="utf-8"?>
<!-- Generator: Adobe Illustrator 16.0.0, SVG Export Plug-In . SVG Version: 6.00 Build 0)  -->
<!DOCTYPE svg PUBLIC "-//W3C//DTD SVG 1.1//EN" "http://www.w3.org/Graphics/SVG/1.1/DTD/svg11.dtd">
<svg version="1.1" id="圖層_1" xmlns="http://www.w3.org/2000/svg" xmlns:xlink="http://www.w3.org/1999/xlink" x="0px" y="0px"
	 width="352px" height="209px" viewBox="0 0 352 209" enable-background="new 0 0 352 209" xml:space="preserve">
<polygon fill="#ECECEC" points="0,209 68.333,94.833 111.333,25.082 119,92.167 224.535,86.833 251,31.5 352,206.833 "/>
<polygon fill="#282F44" points="78.659,133.994 96.133,139.611 120.333,133.994 89.892,130.25 "/>
<polygon fill="#282F44" points="182.659,140.25 201.21,144.25 227.326,140.25 202.114,135.25 "/>
<polygon fill="#E6AF2E" points="89.892,130.25 91.917,138.256 96.133,139.611 100.303,138.644 99.496,131.432 "/>
<polygon fill="#E6AF2E" points="196.893,136.592 196.893,144.25 201.21,144.25 205.527,143.589 205.527,135.927 202.114,135.25 "/>
<polygon fill="#282F44" points="139.516,150.75 131.823,139.75 139.516,145.25 145.622,141.75 "/>
<line fill="none" stroke="#282F44" stroke-miterlimit="10" x1="138.723" y1="155.25" x2="135.148" y2="180.25"/>
<polyline fill="none" stroke="#282F44" stroke-miterlimit="10" points="126.67,190.25 135.148,184.75 138.723,190.25 "/>
<polygon fill="#FFFFFF" points="109.667,88.833 78.333,88.833 108,31.5 "/>
<polygon fill="#FFFFFF" stroke="#FFFFFF" stroke-miterlimit="10" points="251,31.5 243.667,96.833 278.841,96.833 "/>
</svg>
