<?xml version="1.0" encoding="utf-8"?>
<!-- Generator: Adobe Illustrator 16.0.0, SVG Export Plug-In . SVG Version: 6.00 Build 0)  -->
<!DOCTYPE svg PUBLIC "-//W3C//DTD SVG 1.1//EN" "http://www.w3.org/Graphics/SVG/1.1/DTD/svg11.dtd">
<svg version="1.1" id="圖層_1" xmlns="http://www.w3.org/2000/svg" xmlns:xlink="http://www.w3.org/1999/xlink" x="0px" y="0px"
	 width="317.5px" height="205.297px" viewBox="0 0 317.5 205.297" enable-background="new 0 0 317.5 205.297" xml:space="preserve">
<polygon fill="#FFBB19" points="122.733,34.223 94.812,148.938 82.229,206.297 212.033,206.297 209.84,120.26 195.486,36.653 
	190.194,54.638 127.434,56.097 "/>
<polygon fill="#F5F5F5" points="126.138,81.858 138.776,83.479 147.13,80.563 "/>
<polygon fill="#F5F5F5" points="165.997,80.563 178.959,83.479 189.977,80.563 "/>
<polygon fill="#282F44" points="134.01,81.373 134.306,82.906 138.776,83.479 141.793,82.426 141.407,80.916 "/>
<polygon fill="#282F44" points="174.26,80.563 174.635,82.506 179.182,83.479 182.199,82.771 182.199,80.563 "/>
<polygon fill="#282F44" points="156.6,91.095 153.993,88.664 156.6,88.664 158.908,88.664 "/>
<polyline fill="none" stroke="#282F44" stroke-miterlimit="10" points="161.839,104.907 156.042,102.32 151.062,107.134 "/>
<line fill="none" stroke="#282F44" stroke-miterlimit="10" x1="156.451" y1="91.823" x2="156.451" y2="99.966"/>
<polygon fill="#8A8A8A" points="214.764,34.223 186.843,148.938 174.26,206.297 304.063,206.297 301.872,120.26 287.518,36.653 
	282.226,54.638 219.465,56.097 "/>
<polygon fill="#F5F5F5" points="218.169,81.858 230.808,83.479 239.162,80.563 "/>
<polygon fill="#F5F5F5" points="258.028,80.563 270.99,83.479 282.008,80.563 "/>
<polygon fill="#282F44" points="226.042,81.373 226.337,82.906 230.808,83.479 233.824,82.426 233.438,80.916 "/>
<polygon fill="#282F44" points="266.291,80.563 266.666,82.506 271.213,83.479 274.23,82.771 274.23,80.563 "/>
<polygon fill="#282F44" points="248.63,91.095 246.024,88.664 248.63,88.664 250.939,88.664 "/>
<polyline fill="none" stroke="#282F44" stroke-miterlimit="10" points="253.87,104.907 248.074,102.32 243.093,107.134 "/>
<line fill="none" stroke="#282F44" stroke-miterlimit="10" x1="248.481" y1="91.823" x2="248.481" y2="99.966"/>
<polygon fill="#282F44" stroke="#F5F5F5" stroke-miterlimit="10" points="49.2,55.61 24.749,156.067 13.729,206.297 127.4,206.297 
	125.48,130.953 112.91,57.738 108.276,73.488 53.316,74.766 "/>
<polygon fill="#F5F5F5" points="52.182,96.19 63.249,97.609 70.564,95.056 "/>
<polygon fill="#F5F5F5" points="87.086,95.056 98.437,97.609 108.086,95.056 "/>
<polygon fill="#282F44" points="59.075,95.765 59.334,97.107 63.249,97.609 65.891,96.688 65.553,95.365 "/>
<polygon fill="#282F44" points="94.322,95.056 94.65,96.757 98.632,97.609 101.274,96.988 101.274,95.056 "/>
<polygon fill="#F5F5F5" points="78.856,104.278 76.574,102.149 78.856,102.149 80.878,102.149 "/>
<polyline fill="none" stroke="#F5F5F5" stroke-miterlimit="10" points="83.445,116.375 78.369,114.108 74.007,118.324 "/>
<line fill="none" stroke="#F5F5F5" stroke-miterlimit="10" x1="78.726" y1="104.917" x2="78.726" y2="112.047"/>
<polyline fill="none" stroke="#282F44" stroke-width="4" stroke-miterlimit="10" points="237.541,53.804 233.491,61.689 
	239.162,63.104 237.704,71.899 "/>
<polyline fill="none" stroke="#282F44" stroke-width="4" stroke-miterlimit="10" points="247.238,51.869 243.188,59.714 
	248.859,61.119 247.401,69.869 "/>
<polyline fill="none" stroke="#282F44" stroke-width="4" stroke-miterlimit="10" points="259.243,53.232 255.193,61.367 
	260.864,62.825 259.405,71.899 "/>
<polygon fill="#F5F5F5" points="68.375,73.988 71.516,76.847 75.823,75.417 83.345,79.342 94.646,76.665 104.125,80.916 
	107.984,73.81 "/>
</svg>
