<?xml version="1.0" encoding="utf-8"?>
<!-- Generator: Adobe Illustrator 16.0.0, SVG Export Plug-In . SVG Version: 6.00 Build 0)  -->
<!DOCTYPE svg PUBLIC "-//W3C//DTD SVG 1.1//EN" "http://www.w3.org/Graphics/SVG/1.1/DTD/svg11.dtd">
<svg version="1.1" id="圖層_1" xmlns="http://www.w3.org/2000/svg" xmlns:xlink="http://www.w3.org/1999/xlink" x="0px" y="0px"
	 width="352px" height="209px" viewBox="0 0 352 209" enable-background="new 0 0 352 209" xml:space="preserve">
<g>
	<g>
		
			<line fill="#E6AF2E" stroke="#ECECEC" stroke-width="18" stroke-miterlimit="10" x1="163.874" y1="166.427" x2="184.337" y2="198.053"/>
		
			<line fill="#E6AF2E" stroke="#ECECEC" stroke-width="18" stroke-miterlimit="10" x1="189.919" y1="172.008" x2="158.292" y2="192.472"/>
	</g>
	<polygon fill="#ECECEC" points="194.554,13.438 89.779,112.021 10.45,207.28 342.679,207.28 272.357,79.372 237.217,124.353 
		174.105,84.092 	"/>
	<polygon fill="#282F44" points="126.061,111.003 136.956,122.48 158.312,126.838 139.135,114.783 	"/>
	<polygon fill="#282F44" points="207.313,139.963 220,147.674 234.931,145.96 218.286,141.502 	"/>
	<polygon fill="#E6AF2E" points="136.338,113.974 132.931,118.24 136.956,122.48 142.187,123.547 144.635,118.24 139.135,114.783 	
		"/>
	<polygon fill="#E6AF2E" points="216.813,141.855 215.901,143.946 220.046,146.986 224.535,146.471 224.535,143.684 	"/>
	<polygon fill="#282F44" points="154.987,141.779 152.992,131.14 156.65,136.459 163.632,138.21 	"/>
	<line fill="none" stroke="#282F44" stroke-miterlimit="10" x1="153.99" y1="146.081" x2="155.985" y2="173.301"/>
	<polyline fill="none" stroke="#282F44" stroke-miterlimit="10" points="150,180.349 155.985,177.356 160.307,180.349 	"/>
	<polygon fill="#FFFFFF" points="194.554,12.938 163.632,78.873 130.383,78.873 	"/>
	<polygon fill="#F9F9F9" points="273.585,81.106 266.372,138.21 291.309,131.14 	"/>
</g>
</svg>
