<?xml version="1.0" encoding="utf-8"?>
<!-- Generator: Adobe Illustrator 16.0.0, SVG Export Plug-In . SVG Version: 6.00 Build 0)  -->
<!DOCTYPE svg PUBLIC "-//W3C//DTD SVG 1.1//EN" "http://www.w3.org/Graphics/SVG/1.1/DTD/svg11.dtd">
<svg version="1.1" id="圖層_1" xmlns="http://www.w3.org/2000/svg" xmlns:xlink="http://www.w3.org/1999/xlink" x="0px" y="0px"
	 width="352px" height="209px" viewBox="0 0 352 209" enable-background="new 0 0 352 209" xml:space="preserve">
<polygon fill="#ECECEC" points="352,209 283.667,94.833 240.667,25.082 233.001,92.167 127.466,86.833 101,31.5 0,206.833 "/>
<polygon fill="#282F44" points="273.342,133.994 255.868,139.611 231.667,133.994 262.108,130.25 "/>
<polygon fill="#282F44" points="169.342,140.25 150.79,144.25 124.675,140.25 149.886,135.25 "/>
<polygon fill="#E6AF2E" points="262.108,130.25 260.083,138.256 255.868,139.611 251.698,138.644 252.504,131.432 "/>
<polygon fill="#E6AF2E" points="155.107,136.592 155.107,144.25 150.79,144.25 146.474,143.589 146.474,135.927 149.886,135.25 "/>
<polygon fill="#282F44" points="221.96,150.611 229.653,139.611 221.96,145.111 215.854,141.611 "/>
<line fill="none" stroke="#282F44" stroke-miterlimit="10" x1="222.754" y1="155.111" x2="226.328" y2="180.111"/>
<polyline fill="none" stroke="#282F44" stroke-miterlimit="10" points="234.807,190.111 226.328,184.611 222.754,190.111 "/>
<polygon fill="#FFFFFF" points="242.334,88.833 273.667,88.833 244.001,31.5 "/>
<polygon fill="#FFFFFF" points="103.588,39.167 109.161,104.5 82.428,104.5 "/>
</svg>
