<?xml version="1.0" encoding="utf-8"?>
<!-- Generator: Adobe Illustrator 16.0.0, SVG Export Plug-In . SVG Version: 6.00 Build 0)  -->
<!DOCTYPE svg PUBLIC "-//W3C//DTD SVG 1.1//EN" "http://www.w3.org/Graphics/SVG/1.1/DTD/svg11.dtd">
<svg version="1.1" id="圖層_1" xmlns="http://www.w3.org/2000/svg" xmlns:xlink="http://www.w3.org/1999/xlink" x="0px" y="0px"
	 width="148.965px" height="205.297px" viewBox="0 0 148.965 205.297" enable-background="new 0 0 148.965 205.297"
	 xml:space="preserve">
<polygon fill="#FFBB19" points="50.085,34.223 22.164,148.938 9.58,206.297 139.385,206.297 137.192,120.26 122.838,36.653 
	117.546,54.638 54.786,56.097 "/>
<polygon fill="#F5F5F5" points="53.49,81.858 66.128,83.479 74.482,80.563 "/>
<polygon fill="#F5F5F5" points="93.349,80.563 106.312,83.479 117.329,80.563 "/>
<polygon fill="#282F44" points="61.362,81.373 61.658,82.906 66.128,83.479 69.145,82.426 68.759,80.916 "/>
<polygon fill="#282F44" points="101.611,80.563 101.986,82.506 106.534,83.479 109.551,82.771 109.551,80.563 "/>
<polygon fill="#282F44" points="83.951,91.095 81.345,88.664 83.951,88.664 86.26,88.664 "/>
<polyline fill="none" stroke="#282F44" stroke-miterlimit="10" points="89.19,104.907 83.395,102.32 78.414,107.134 "/>
<line fill="none" stroke="#282F44" stroke-miterlimit="10" x1="83.803" y1="91.823" x2="83.803" y2="99.966"/>
</svg>
