<?xml version="1.0" encoding="utf-8"?>
<!-- Generator: Adobe Illustrator 16.0.0, SVG Export Plug-In . SVG Version: 6.00 Build 0)  -->
<!DOCTYPE svg PUBLIC "-//W3C//DTD SVG 1.1//EN" "http://www.w3.org/Graphics/SVG/1.1/DTD/svg11.dtd">
<svg version="1.1" id="圖層_1" xmlns="http://www.w3.org/2000/svg" xmlns:xlink="http://www.w3.org/1999/xlink" x="0px" y="0px"
	 width="352px" height="209px" viewBox="0 0 352 209" enable-background="new 0 0 352 209" xml:space="preserve">
<g>
	<g>
		
			<line fill="#E6AF2E" stroke="#ECECEC" stroke-width="18" stroke-miterlimit="10" x1="189.256" y1="166.427" x2="168.792" y2="198.053"/>
		
			<line fill="#E6AF2E" stroke="#ECECEC" stroke-width="18" stroke-miterlimit="10" x1="163.21" y1="172.008" x2="194.837" y2="192.472"/>
	</g>
	<polygon fill="#ECECEC" points="158.575,13.438 263.351,112.021 342.679,207.28 10.45,207.28 80.772,79.372 115.912,124.353 
		179.023,84.092 	"/>
	<polygon fill="#282F44" points="227.068,111.003 216.173,122.48 194.817,126.838 213.994,114.783 	"/>
	<polygon fill="#282F44" points="145.815,139.963 133.129,147.674 118.198,145.96 134.843,141.502 	"/>
	<polygon fill="#E6AF2E" points="216.791,113.974 220.198,118.24 216.173,122.48 210.942,123.547 208.494,118.24 213.994,114.783 	
		"/>
	<polygon fill="#E6AF2E" points="136.315,141.855 137.229,143.946 133.083,146.986 128.594,146.471 128.594,143.684 	"/>
	<polygon fill="#282F44" points="198.142,141.779 200.137,131.14 196.479,136.459 189.497,138.21 	"/>
	<line fill="none" stroke="#282F44" stroke-miterlimit="10" x1="199.14" y1="146.081" x2="197.145" y2="173.301"/>
	<polyline fill="none" stroke="#282F44" stroke-miterlimit="10" points="203.129,180.349 197.145,177.356 192.822,180.349 	"/>
	<polygon fill="#FFFFFF" points="158.575,12.938 189.497,78.873 222.746,78.873 	"/>
	<polygon fill="#FFFFFF" points="79.544,81.106 86.757,138.21 61.82,131.14 	"/>
</g>
</svg>
