<?xml version="1.0" encoding="utf-8"?>
<!-- Generator: Adobe Illustrator 16.0.0, SVG Export Plug-In . SVG Version: 6.00 Build 0)  -->
<!DOCTYPE svg PUBLIC "-//W3C//DTD SVG 1.1//EN" "http://www.w3.org/Graphics/SVG/1.1/DTD/svg11.dtd">
<svg version="1.1" id="圖層_1" xmlns="http://www.w3.org/2000/svg" xmlns:xlink="http://www.w3.org/1999/xlink" x="0px" y="0px"
	 width="148.965px" height="205.297px" viewBox="0 0 148.965 205.297" enable-background="new 0 0 148.965 205.297"
	 xml:space="preserve">
<polygon fill="#282F44" stroke="#F5F5F5" stroke-miterlimit="10" points="49.2,55.61 24.749,156.067 13.729,206.297 127.4,206.297 
	125.48,130.953 112.91,57.738 108.276,73.488 53.316,74.766 "/>
<polygon fill="#F5F5F5" points="52.182,96.19 63.249,97.609 70.564,95.056 "/>
<polygon fill="#F5F5F5" points="87.086,95.056 98.437,97.609 108.086,95.056 "/>
<polygon fill="#282F44" points="59.075,95.765 59.334,97.107 63.249,97.609 65.891,96.688 65.553,95.365 "/>
<polygon fill="#282F44" points="94.322,95.056 94.65,96.757 98.632,97.609 101.274,96.988 101.274,95.056 "/>
<polygon fill="#F5F5F5" points="78.856,104.278 76.574,102.149 78.856,102.149 80.878,102.149 "/>
<polyline fill="none" stroke="#F5F5F5" stroke-miterlimit="10" points="83.445,116.375 78.369,114.108 74.007,118.324 "/>
<line fill="none" stroke="#F5F5F5" stroke-miterlimit="10" x1="78.726" y1="104.917" x2="78.726" y2="112.047"/>
<polygon fill="#F5F5F5" points="68.375,73.988 71.516,76.847 75.823,75.417 83.345,79.342 94.646,76.665 104.125,80.916 
	107.984,73.81 "/>
</svg>
